<mxfile host="app.diagrams.net" modified="2024-04-01T00:54:41.780Z" agent="Mozilla/5.0 (Macintosh; Intel Mac OS X 10_15_7) AppleWebKit/605.1.15 (KHTML, like Gecko) Version/17.4 Safari/605.1.15" etag="GqB7zOytvCS9R0hSoXKk" version="24.1.0" type="device">
  <diagram name="Page-1" id="hrw902O539XTYLNtP8d-">
    <mxGraphModel dx="1811" dy="667" grid="1" gridSize="10" guides="1" tooltips="1" connect="1" arrows="1" fold="1" page="1" pageScale="1" pageWidth="827" pageHeight="1169" math="0" shadow="0">
      <root>
        <mxCell id="0" />
        <mxCell id="1" parent="0" />
        <mxCell id="lFsfy4obLwNb20StSC2V-19" value="" style="rounded=0;whiteSpace=wrap;html=1;fillColor=#f5f5f5;fontColor=#333333;strokeColor=#666666;" parent="1" vertex="1">
          <mxGeometry x="-110" y="110" width="750" height="260" as="geometry" />
        </mxCell>
        <mxCell id="lFsfy4obLwNb20StSC2V-14" value="" style="rounded=0;whiteSpace=wrap;html=1;" parent="1" vertex="1">
          <mxGeometry x="-70" y="155" width="660" height="145" as="geometry" />
        </mxCell>
        <mxCell id="lFsfy4obLwNb20StSC2V-2" value="a" style="rounded=0;whiteSpace=wrap;html=1;fillColor=#f8cecc;strokeColor=#b85450;fontStyle=1;fontSize=17;" parent="1" vertex="1">
          <mxGeometry x="320" y="197.5" width="60" height="60" as="geometry" />
        </mxCell>
        <mxCell id="lFsfy4obLwNb20StSC2V-3" value="space" style="rounded=0;whiteSpace=wrap;html=1;fillColor=#f8cecc;strokeColor=#b85450;fontStyle=1;fontSize=17;" parent="1" vertex="1">
          <mxGeometry x="380" y="197.5" width="60" height="60" as="geometry" />
        </mxCell>
        <mxCell id="lFsfy4obLwNb20StSC2V-4" value="n" style="rounded=0;whiteSpace=wrap;html=1;fillColor=#f8cecc;strokeColor=#b85450;fontStyle=1;fontSize=17;" parent="1" vertex="1">
          <mxGeometry x="440" y="197.5" width="60" height="60" as="geometry" />
        </mxCell>
        <mxCell id="lFsfy4obLwNb20StSC2V-5" value="A" style="rounded=0;whiteSpace=wrap;html=1;fillColor=#f8cecc;strokeColor=#b85450;fontStyle=1;fontSize=17;" parent="1" vertex="1">
          <mxGeometry x="500" y="197.5" width="60" height="60" as="geometry" />
        </mxCell>
        <mxCell id="lFsfy4obLwNb20StSC2V-8" value="0X00" style="text;html=1;align=center;verticalAlign=middle;whiteSpace=wrap;rounded=0;fontColor=#990000;fontStyle=1" parent="1" vertex="1">
          <mxGeometry x="530" y="257.5" width="60" height="30" as="geometry" />
        </mxCell>
        <mxCell id="lFsfy4obLwNb20StSC2V-10" value="&lt;font style=&quot;font-size: 15px;&quot;&gt;char 1&lt;/font&gt;" style="text;html=1;align=center;verticalAlign=middle;whiteSpace=wrap;rounded=0;" parent="1" vertex="1">
          <mxGeometry x="500" y="167.5" width="60" height="30" as="geometry" />
        </mxCell>
        <mxCell id="lFsfy4obLwNb20StSC2V-11" value="&lt;font style=&quot;font-size: 15px;&quot;&gt;char 2&lt;/font&gt;" style="text;html=1;align=center;verticalAlign=middle;whiteSpace=wrap;rounded=0;" parent="1" vertex="1">
          <mxGeometry x="440" y="167.5" width="60" height="30" as="geometry" />
        </mxCell>
        <mxCell id="lFsfy4obLwNb20StSC2V-12" value="&lt;font style=&quot;font-size: 15px;&quot;&gt;char 3&lt;/font&gt;" style="text;html=1;align=center;verticalAlign=middle;whiteSpace=wrap;rounded=0;" parent="1" vertex="1">
          <mxGeometry x="380" y="167.5" width="60" height="30" as="geometry" />
        </mxCell>
        <mxCell id="lFsfy4obLwNb20StSC2V-13" value="&lt;font style=&quot;font-size: 15px;&quot;&gt;char 4&lt;/font&gt;" style="text;html=1;align=center;verticalAlign=middle;whiteSpace=wrap;rounded=0;" parent="1" vertex="1">
          <mxGeometry x="320" y="167.5" width="60" height="30" as="geometry" />
        </mxCell>
        <mxCell id="lFsfy4obLwNb20StSC2V-21" value="0X01" style="text;html=1;align=center;verticalAlign=middle;whiteSpace=wrap;rounded=0;fontColor=#990000;fontStyle=1" parent="1" vertex="1">
          <mxGeometry x="474" y="257.5" width="52" height="30" as="geometry" />
        </mxCell>
        <mxCell id="lFsfy4obLwNb20StSC2V-22" value="0X02" style="text;html=1;align=center;verticalAlign=middle;whiteSpace=wrap;rounded=0;fontColor=#990000;fontStyle=1" parent="1" vertex="1">
          <mxGeometry x="410" y="257.5" width="60" height="30" as="geometry" />
        </mxCell>
        <mxCell id="lFsfy4obLwNb20StSC2V-23" value="0X03" style="text;html=1;align=center;verticalAlign=middle;whiteSpace=wrap;rounded=0;fontColor=#990000;fontStyle=1" parent="1" vertex="1">
          <mxGeometry x="350" y="257.5" width="60" height="30" as="geometry" />
        </mxCell>
        <mxCell id="LY4sB3mU6g4VXUHB-9Zz-13" value="0X04" style="text;html=1;align=center;verticalAlign=middle;whiteSpace=wrap;rounded=0;fontColor=#990000;fontStyle=1" vertex="1" parent="1">
          <mxGeometry x="290" y="257.5" width="60" height="30" as="geometry" />
        </mxCell>
        <mxCell id="LY4sB3mU6g4VXUHB-9Zz-17" value="&lt;font style=&quot;font-size: 15px;&quot;&gt;char str1[10] = &quot;An array&quot;;&lt;/font&gt;" style="text;html=1;align=center;verticalAlign=middle;whiteSpace=wrap;rounded=0;" vertex="1" parent="1">
          <mxGeometry x="120" y="320" width="260" height="30" as="geometry" />
        </mxCell>
        <mxCell id="LY4sB3mU6g4VXUHB-9Zz-29" value="y" style="rounded=0;whiteSpace=wrap;html=1;fillColor=#f8cecc;strokeColor=#b85450;fontStyle=1;fontSize=17;" vertex="1" parent="1">
          <mxGeometry x="80" y="197.5" width="60" height="60" as="geometry" />
        </mxCell>
        <mxCell id="LY4sB3mU6g4VXUHB-9Zz-30" value="a" style="rounded=0;whiteSpace=wrap;html=1;fillColor=#f8cecc;strokeColor=#b85450;fontStyle=1;fontSize=17;" vertex="1" parent="1">
          <mxGeometry x="140" y="197.5" width="60" height="60" as="geometry" />
        </mxCell>
        <mxCell id="LY4sB3mU6g4VXUHB-9Zz-31" value="r" style="rounded=0;whiteSpace=wrap;html=1;fillColor=#f8cecc;strokeColor=#b85450;fontStyle=1;fontSize=17;" vertex="1" parent="1">
          <mxGeometry x="200" y="197.5" width="60" height="60" as="geometry" />
        </mxCell>
        <mxCell id="LY4sB3mU6g4VXUHB-9Zz-32" value="r" style="rounded=0;whiteSpace=wrap;html=1;fillColor=#f8cecc;strokeColor=#b85450;fontStyle=1;fontSize=17;" vertex="1" parent="1">
          <mxGeometry x="260" y="197.5" width="60" height="60" as="geometry" />
        </mxCell>
        <mxCell id="LY4sB3mU6g4VXUHB-9Zz-33" value="0X09" style="text;html=1;align=center;verticalAlign=middle;whiteSpace=wrap;rounded=0;fontColor=#990000;fontStyle=1" vertex="1" parent="1">
          <mxGeometry x="-10" y="257.5" width="60" height="30" as="geometry" />
        </mxCell>
        <mxCell id="LY4sB3mU6g4VXUHB-9Zz-34" value="&lt;font style=&quot;font-size: 15px;&quot;&gt;char 5&lt;/font&gt;" style="text;html=1;align=center;verticalAlign=middle;whiteSpace=wrap;rounded=0;" vertex="1" parent="1">
          <mxGeometry x="260" y="167.5" width="60" height="30" as="geometry" />
        </mxCell>
        <mxCell id="LY4sB3mU6g4VXUHB-9Zz-35" value="&lt;font style=&quot;font-size: 15px;&quot;&gt;char 6&lt;/font&gt;" style="text;html=1;align=center;verticalAlign=middle;whiteSpace=wrap;rounded=0;" vertex="1" parent="1">
          <mxGeometry x="200" y="167.5" width="60" height="30" as="geometry" />
        </mxCell>
        <mxCell id="LY4sB3mU6g4VXUHB-9Zz-36" value="&lt;font style=&quot;font-size: 15px;&quot;&gt;char 7&lt;/font&gt;" style="text;html=1;align=center;verticalAlign=middle;whiteSpace=wrap;rounded=0;" vertex="1" parent="1">
          <mxGeometry x="140" y="167.5" width="60" height="30" as="geometry" />
        </mxCell>
        <mxCell id="LY4sB3mU6g4VXUHB-9Zz-37" value="&lt;font style=&quot;font-size: 15px;&quot;&gt;char 8&lt;/font&gt;" style="text;html=1;align=center;verticalAlign=middle;whiteSpace=wrap;rounded=0;" vertex="1" parent="1">
          <mxGeometry x="84" y="167.5" width="60" height="30" as="geometry" />
        </mxCell>
        <mxCell id="LY4sB3mU6g4VXUHB-9Zz-38" value="0X05" style="text;html=1;align=center;verticalAlign=middle;whiteSpace=wrap;rounded=0;fontColor=#990000;fontStyle=1" vertex="1" parent="1">
          <mxGeometry x="234" y="257.5" width="52" height="30" as="geometry" />
        </mxCell>
        <mxCell id="LY4sB3mU6g4VXUHB-9Zz-39" value="0X06" style="text;html=1;align=center;verticalAlign=middle;whiteSpace=wrap;rounded=0;fontColor=#990000;fontStyle=1" vertex="1" parent="1">
          <mxGeometry x="170" y="257.5" width="60" height="30" as="geometry" />
        </mxCell>
        <mxCell id="LY4sB3mU6g4VXUHB-9Zz-40" value="0X07" style="text;html=1;align=center;verticalAlign=middle;whiteSpace=wrap;rounded=0;fontColor=#990000;fontStyle=1" vertex="1" parent="1">
          <mxGeometry x="110" y="257.5" width="60" height="30" as="geometry" />
        </mxCell>
        <mxCell id="LY4sB3mU6g4VXUHB-9Zz-41" value="0X08" style="text;html=1;align=center;verticalAlign=middle;whiteSpace=wrap;rounded=0;fontColor=#990000;fontStyle=1" vertex="1" parent="1">
          <mxGeometry x="50" y="257.5" width="60" height="30" as="geometry" />
        </mxCell>
        <mxCell id="LY4sB3mU6g4VXUHB-9Zz-42" value="\0" style="rounded=0;whiteSpace=wrap;html=1;fillColor=#f8cecc;strokeColor=#b85450;fontStyle=1;fontSize=17;" vertex="1" parent="1">
          <mxGeometry x="24" y="197.5" width="60" height="60" as="geometry" />
        </mxCell>
        <mxCell id="LY4sB3mU6g4VXUHB-9Zz-43" value="&lt;font style=&quot;font-size: 15px;&quot;&gt;char 9&lt;/font&gt;" style="text;html=1;align=center;verticalAlign=middle;whiteSpace=wrap;rounded=0;" vertex="1" parent="1">
          <mxGeometry x="24" y="167.5" width="60" height="30" as="geometry" />
        </mxCell>
        <mxCell id="LY4sB3mU6g4VXUHB-9Zz-44" value="junk" style="rounded=0;whiteSpace=wrap;html=1;fillColor=#f8cecc;strokeColor=#b85450;fontStyle=1;fontSize=17;" vertex="1" parent="1">
          <mxGeometry x="-36" y="197.5" width="60" height="60" as="geometry" />
        </mxCell>
        <mxCell id="LY4sB3mU6g4VXUHB-9Zz-45" value="&lt;font style=&quot;font-size: 15px;&quot;&gt;char 10&lt;/font&gt;" style="text;html=1;align=center;verticalAlign=middle;whiteSpace=wrap;rounded=0;" vertex="1" parent="1">
          <mxGeometry x="-36" y="167.5" width="60" height="30" as="geometry" />
        </mxCell>
        <mxCell id="LY4sB3mU6g4VXUHB-9Zz-46" value="0X10" style="text;html=1;align=center;verticalAlign=middle;whiteSpace=wrap;rounded=0;fontColor=#990000;fontStyle=1" vertex="1" parent="1">
          <mxGeometry x="-60" y="257.5" width="60" height="30" as="geometry" />
        </mxCell>
      </root>
    </mxGraphModel>
  </diagram>
</mxfile>
